<?xml version="1.0" encoding="utf-8"?>
<!-- Generator: Adobe Illustrator 22.1.0, SVG Export Plug-In . SVG Version: 6.00 Build 0)  -->
<svg version="1.1" id="图层_1" xmlns="http://www.w3.org/2000/svg" xmlns:xlink="http://www.w3.org/1999/xlink" x="0px" y="0px"
	 viewBox="0 0 720 288" style="enable-background:new 0 0 720 288;" xml:space="preserve">
<style type="text/css">
	.st0{fill:none;}
	.st1{clip-path:url(#SVGID_2_);}
	.st2{fill:#FFFFFF;stroke:#FFFFFF;stroke-width:1.07;stroke-linecap:round;stroke-linejoin:round;stroke-miterlimit:10;}
	.st3{clip-path:url(#SVGID_4_);}
	.st4{fill:#EBEBEB;}
	.st5{fill:none;stroke:#FFFFFF;stroke-width:0.53;stroke-linejoin:round;stroke-miterlimit:10;}
	.st6{fill:none;stroke:#FFFFFF;stroke-width:1.07;stroke-linejoin:round;stroke-miterlimit:10;}
	.st7{clip-path:url(#SVGID_36_);}
	.st8{fill:#4D4D4D;}
	.st9{font-family:'ArialMT';}
	.st10{font-size:8.8px;}
	.st11{clip-path:url(#SVGID_40_);}
	.st12{clip-path:url(#SVGID_102_);}
	.st13{clip-path:url(#SVGID_106_);}
	.st14{clip-path:url(#SVGID_110_);}
	.st15{clip-path:url(#SVGID_146_);}
	.st16{enable-background:new    ;}
	.st17{font-size:11px;}
	.st18{letter-spacing:2;}
	.st19{clip-path:url(#SVGID_154_);}
	.st20{fill:#F9BEBB;}
	.st21{clip-path:url(#SVGID_162_);}
	.st22{fill:#89C9C8;}
	.st23{clip-path:url(#SVGID_166_);}
	.st24{letter-spacing:5;}
	.st25{clip-path:url(#SVGID_170_);}
	.st26{clip-path:url(#SVGID_178_);}
</style>
<rect y="0" class="st0" width="720" height="288"/>
<g>
	<defs>
		<rect id="SVGID_1_" y="0" width="720" height="288"/>
	</defs>
	<clipPath id="SVGID_2_">
		<use xlink:href="#SVGID_1_"  style="overflow:visible;"/>
	</clipPath>
	<g class="st1">
		<rect y="0" class="st2" width="720" height="288"/>
	</g>
</g>
<g>
	<defs>
		<rect id="SVGID_3_" x="21.1" y="5.5" width="693.4" height="261.4"/>
	</defs>
	<clipPath id="SVGID_4_">
		<use xlink:href="#SVGID_3_"  style="overflow:visible;"/>
	</clipPath>
	<g class="st3">
		<rect x="21.1" y="5.5" class="st4" width="693.4" height="261.4"/>
		<line class="st5" x1="21.1" y1="234.2" x2="714.5" y2="234.2"/>
		<line class="st5" x1="21.1" y1="168.8" x2="714.5" y2="168.8"/>
		<line class="st5" x1="21.1" y1="103.5" x2="714.5" y2="103.5"/>
		<line class="st5" x1="21.1" y1="38.2" x2="714.5" y2="38.2"/>
		<line class="st5" x1="107.8" y1="266.9" x2="107.8" y2="5.5"/>
		<line class="st5" x1="281.2" y1="266.9" x2="281.2" y2="5.5"/>
		<line class="st5" x1="454.5" y1="266.9" x2="454.5" y2="5.5"/>
		<line class="st5" x1="627.8" y1="266.9" x2="627.8" y2="5.5"/>
		<line class="st6" x1="21.1" y1="266.9" x2="714.5" y2="266.9"/>
		<line class="st6" x1="21.1" y1="201.5" x2="714.5" y2="201.5"/>
		<line class="st6" x1="21.1" y1="136.2" x2="714.5" y2="136.2"/>
		<line class="st6" x1="21.1" y1="70.8" x2="714.5" y2="70.8"/>
		<line class="st6" x1="21.1" y1="5.5" x2="714.5" y2="5.5"/>
		<line class="st6" x1="21.1" y1="266.9" x2="21.1" y2="5.5"/>
		<line class="st6" x1="194.5" y1="266.9" x2="194.5" y2="5.5"/>
		<line class="st6" x1="367.8" y1="266.9" x2="367.8" y2="5.5"/>
		<line class="st6" x1="541.2" y1="266.9" x2="541.2" y2="5.5"/>
		<line class="st6" x1="714.5" y1="266.9" x2="714.5" y2="5.5"/>
		<rect x="21.1" y="5.5" class="st2" width="693.4" height="261.4"/>
	</g>
</g>
<g>
	<defs>
		<rect id="SVGID_5_" x="61.4" y="11" width="537.4" height="187.8"/>
	</defs>
	<clipPath id="SVGID_6_">
		<use xlink:href="#SVGID_5_"  style="overflow:visible;"/>
	</clipPath>
</g>
<g>
	<defs>
		<rect id="SVGID_7_" x="21.1" y="5.5" width="693.4" height="261.4"/>
	</defs>
	<clipPath id="SVGID_8_">
		<use xlink:href="#SVGID_7_"  style="overflow:visible;"/>
	</clipPath>
</g>
<g>
	<defs>
		<rect id="SVGID_9_" x="26.6" y="11" width="682.4" height="95.3"/>
	</defs>
	<clipPath id="SVGID_10_">
		<use xlink:href="#SVGID_9_"  style="overflow:visible;"/>
	</clipPath>
</g>
<g>
	<defs>
		<rect id="SVGID_11_" x="21.1" y="5.5" width="693.4" height="261.4"/>
	</defs>
	<clipPath id="SVGID_12_">
		<use xlink:href="#SVGID_11_"  style="overflow:visible;"/>
	</clipPath>
</g>
<image style="overflow:visible;" width="2240" height="387" xlink:href="FDC37163.jpg"  transform="matrix(0.24 0 0 0.24 61.2 10.8)">
</image>
<g>
	<defs>
		<rect id="SVGID_13_" x="21.1" y="5.5" width="693.4" height="261.4"/>
	</defs>
	<clipPath id="SVGID_14_">
		<use xlink:href="#SVGID_13_"  style="overflow:visible;"/>
	</clipPath>
</g>
<g>
	<defs>
		<rect id="SVGID_15_" y="0" width="720" height="288"/>
	</defs>
	<clipPath id="SVGID_16_">
		<use xlink:href="#SVGID_15_"  style="overflow:visible;"/>
	</clipPath>
</g>
<g>
	<defs>
		<rect id="SVGID_17_" x="21.1" y="5.5" width="693.4" height="261.4"/>
	</defs>
	<clipPath id="SVGID_18_">
		<use xlink:href="#SVGID_17_"  style="overflow:visible;"/>
	</clipPath>
</g>
<g>
	<defs>
		<rect id="SVGID_19_" y="0" width="720" height="288"/>
	</defs>
	<clipPath id="SVGID_20_">
		<use xlink:href="#SVGID_19_"  style="overflow:visible;"/>
	</clipPath>
</g>
<g>
	<defs>
		<rect id="SVGID_21_" x="21.1" y="5.5" width="693.4" height="261.4"/>
	</defs>
	<clipPath id="SVGID_22_">
		<use xlink:href="#SVGID_21_"  style="overflow:visible;"/>
	</clipPath>
</g>
<g>
	<defs>
		<rect id="SVGID_23_" y="0" width="720" height="288"/>
	</defs>
	<clipPath id="SVGID_24_">
		<use xlink:href="#SVGID_23_"  style="overflow:visible;"/>
	</clipPath>
</g>
<g>
	<defs>
		<rect id="SVGID_25_" x="21.1" y="5.5" width="693.4" height="261.4"/>
	</defs>
	<clipPath id="SVGID_26_">
		<use xlink:href="#SVGID_25_"  style="overflow:visible;"/>
	</clipPath>
</g>
<g>
	<defs>
		<rect id="SVGID_27_" y="0" width="720" height="288"/>
	</defs>
	<clipPath id="SVGID_28_">
		<use xlink:href="#SVGID_27_"  style="overflow:visible;"/>
	</clipPath>
</g>
<g>
	<defs>
		<rect id="SVGID_29_" x="21.1" y="5.5" width="693.4" height="261.4"/>
	</defs>
	<clipPath id="SVGID_30_">
		<use xlink:href="#SVGID_29_"  style="overflow:visible;"/>
	</clipPath>
</g>
<g>
	<defs>
		<rect id="SVGID_31_" y="0" width="720" height="288"/>
	</defs>
	<clipPath id="SVGID_32_">
		<use xlink:href="#SVGID_31_"  style="overflow:visible;"/>
	</clipPath>
</g>
<g>
	<defs>
		<rect id="SVGID_33_" x="21.1" y="5.5" width="693.4" height="261.4"/>
	</defs>
	<clipPath id="SVGID_34_">
		<use xlink:href="#SVGID_33_"  style="overflow:visible;"/>
	</clipPath>
</g>
<g>
	<defs>
		<rect id="SVGID_35_" y="0" width="720" height="288"/>
	</defs>
	<clipPath id="SVGID_36_">
		<use xlink:href="#SVGID_35_"  style="overflow:visible;"/>
	</clipPath>
	<g class="st7">
		<rect x="31.5" y="97.7" class="st0" width="25" height="10.4"/>
		<text transform="matrix(1 0 0 1 31.5381 105.2302)" class="st8 st9 st10">98.0%</text>
		<rect x="31.5" y="76" class="st0" width="25" height="10.4"/>
		<text transform="matrix(1 0 0 1 31.5381 83.5402)" class="st8 st9 st10">98.5%</text>
		<rect x="31.5" y="54.3" class="st0" width="25" height="10.4"/>
		<text transform="matrix(1 0 0 1 31.5381 61.84)" class="st8 st9 st10">99.0%</text>
		<rect x="31.5" y="32.6" class="st0" width="25" height="10.4"/>
		<text transform="matrix(1 0 0 1 31.5381 40.1398)" class="st8 st9 st10">99.5%</text>
		<rect x="26.6" y="10.9" class="st0" width="29.9" height="10.4"/>
		<text transform="matrix(1 0 0 1 26.644 18.4499)" class="st8 st9 st10">100.0%</text>
	</g>
</g>
<g>
	<defs>
		<rect id="SVGID_37_" x="21.1" y="5.5" width="693.4" height="261.4"/>
	</defs>
	<clipPath id="SVGID_38_">
		<use xlink:href="#SVGID_37_"  style="overflow:visible;"/>
	</clipPath>
</g>
<g>
	<defs>
		<rect id="SVGID_39_" y="0" width="720" height="288"/>
	</defs>
	<clipPath id="SVGID_40_">
		<use xlink:href="#SVGID_39_"  style="overflow:visible;"/>
	</clipPath>
	<g class="st11">
		<rect x="603.7" y="97.7" class="st0" width="25" height="10.4"/>
		<text transform="matrix(1 0 0 1 603.7197 105.2302)" class="st8 st9 st10">98.0%</text>
		<rect x="603.7" y="76" class="st0" width="25" height="10.4"/>
		<text transform="matrix(1 0 0 1 603.7197 83.5402)" class="st8 st9 st10">98.5%</text>
		<rect x="603.7" y="54.3" class="st0" width="25" height="10.4"/>
		<text transform="matrix(1 0 0 1 603.7197 61.84)" class="st8 st9 st10">99.0%</text>
		<rect x="603.7" y="32.6" class="st0" width="25" height="10.4"/>
		<text transform="matrix(1 0 0 1 603.7197 40.1398)" class="st8 st9 st10">99.5%</text>
		<rect x="603.7" y="10.9" class="st0" width="29.9" height="10.4"/>
		<text transform="matrix(1 0 0 1 603.7197 18.4499)" class="st8 st9 st10">100.0%</text>
	</g>
</g>
<g>
	<defs>
		<rect id="SVGID_41_" x="21.1" y="5.5" width="693.4" height="261.4"/>
	</defs>
	<clipPath id="SVGID_42_">
		<use xlink:href="#SVGID_41_"  style="overflow:visible;"/>
	</clipPath>
</g>
<g>
	<defs>
		<rect id="SVGID_43_" y="0" width="720" height="288"/>
	</defs>
	<clipPath id="SVGID_44_">
		<use xlink:href="#SVGID_43_"  style="overflow:visible;"/>
	</clipPath>
</g>
<g>
	<defs>
		<rect id="SVGID_45_" x="21.1" y="5.5" width="693.4" height="261.4"/>
	</defs>
	<clipPath id="SVGID_46_">
		<use xlink:href="#SVGID_45_"  style="overflow:visible;"/>
	</clipPath>
</g>
<g>
	<defs>
		<rect id="SVGID_47_" y="0" width="720" height="288"/>
	</defs>
	<clipPath id="SVGID_48_">
		<use xlink:href="#SVGID_47_"  style="overflow:visible;"/>
	</clipPath>
</g>
<g>
	<defs>
		<rect id="SVGID_49_" x="21.1" y="5.5" width="693.4" height="261.4"/>
	</defs>
	<clipPath id="SVGID_50_">
		<use xlink:href="#SVGID_49_"  style="overflow:visible;"/>
	</clipPath>
</g>
<g>
	<defs>
		<rect id="SVGID_51_" y="0" width="720" height="288"/>
	</defs>
	<clipPath id="SVGID_52_">
		<use xlink:href="#SVGID_51_"  style="overflow:visible;"/>
	</clipPath>
</g>
<g>
	<defs>
		<rect id="SVGID_53_" x="21.1" y="5.5" width="693.4" height="261.4"/>
	</defs>
	<clipPath id="SVGID_54_">
		<use xlink:href="#SVGID_53_"  style="overflow:visible;"/>
	</clipPath>
</g>
<g>
	<defs>
		<rect id="SVGID_55_" y="0" width="720" height="288"/>
	</defs>
	<clipPath id="SVGID_56_">
		<use xlink:href="#SVGID_55_"  style="overflow:visible;"/>
	</clipPath>
</g>
<g>
	<defs>
		<rect id="SVGID_57_" x="21.1" y="5.5" width="693.4" height="261.4"/>
	</defs>
	<clipPath id="SVGID_58_">
		<use xlink:href="#SVGID_57_"  style="overflow:visible;"/>
	</clipPath>
</g>
<g>
	<defs>
		<rect id="SVGID_59_" y="0" width="720" height="288"/>
	</defs>
	<clipPath id="SVGID_60_">
		<use xlink:href="#SVGID_59_"  style="overflow:visible;"/>
	</clipPath>
</g>
<g>
	<defs>
		<rect id="SVGID_61_" x="21.1" y="5.5" width="693.4" height="261.4"/>
	</defs>
	<clipPath id="SVGID_62_">
		<use xlink:href="#SVGID_61_"  style="overflow:visible;"/>
	</clipPath>
</g>
<g>
	<defs>
		<rect id="SVGID_63_" y="0" width="720" height="288"/>
	</defs>
	<clipPath id="SVGID_64_">
		<use xlink:href="#SVGID_63_"  style="overflow:visible;"/>
	</clipPath>
</g>
<g>
	<defs>
		<rect id="SVGID_65_" x="21.1" y="5.5" width="693.4" height="261.4"/>
	</defs>
	<clipPath id="SVGID_66_">
		<use xlink:href="#SVGID_65_"  style="overflow:visible;"/>
	</clipPath>
</g>
<g>
	<defs>
		<rect id="SVGID_67_" y="0" width="720" height="288"/>
	</defs>
	<clipPath id="SVGID_68_">
		<use xlink:href="#SVGID_67_"  style="overflow:visible;"/>
	</clipPath>
</g>
<g>
	<defs>
		<rect id="SVGID_69_" x="21.1" y="5.5" width="693.4" height="261.4"/>
	</defs>
	<clipPath id="SVGID_70_">
		<use xlink:href="#SVGID_69_"  style="overflow:visible;"/>
	</clipPath>
</g>
<g>
	<defs>
		<rect id="SVGID_71_" y="0" width="720" height="288"/>
	</defs>
	<clipPath id="SVGID_72_">
		<use xlink:href="#SVGID_71_"  style="overflow:visible;"/>
	</clipPath>
</g>
<g>
	<defs>
		<rect id="SVGID_73_" x="21.1" y="5.5" width="693.4" height="261.4"/>
	</defs>
	<clipPath id="SVGID_74_">
		<use xlink:href="#SVGID_73_"  style="overflow:visible;"/>
	</clipPath>
</g>
<g>
	<defs>
		<rect id="SVGID_75_" x="26.6" y="106.2" width="682.4" height="155.1"/>
	</defs>
	<clipPath id="SVGID_76_">
		<use xlink:href="#SVGID_75_"  style="overflow:visible;"/>
	</clipPath>
</g>
<g>
	<defs>
		<rect id="SVGID_77_" x="21.1" y="5.5" width="693.4" height="261.4"/>
	</defs>
	<clipPath id="SVGID_78_">
		<use xlink:href="#SVGID_77_"  style="overflow:visible;"/>
	</clipPath>
</g>
<image style="overflow:visible;" width="2240" height="395" xlink:href="FDC37161.jpg"  transform="matrix(0.24 0 0 0.24 61.2 104.64)">
</image>
<g>
	<defs>
		<rect id="SVGID_79_" x="21.1" y="5.5" width="693.4" height="261.4"/>
	</defs>
	<clipPath id="SVGID_80_">
		<use xlink:href="#SVGID_79_"  style="overflow:visible;"/>
	</clipPath>
</g>
<g>
	<defs>
		<rect id="SVGID_81_" y="0" width="720" height="288"/>
	</defs>
	<clipPath id="SVGID_82_">
		<use xlink:href="#SVGID_81_"  style="overflow:visible;"/>
	</clipPath>
</g>
<g>
	<defs>
		<rect id="SVGID_83_" x="21.1" y="5.5" width="693.4" height="261.4"/>
	</defs>
	<clipPath id="SVGID_84_">
		<use xlink:href="#SVGID_83_"  style="overflow:visible;"/>
	</clipPath>
</g>
<g>
	<defs>
		<rect id="SVGID_85_" y="0" width="720" height="288"/>
	</defs>
	<clipPath id="SVGID_86_">
		<use xlink:href="#SVGID_85_"  style="overflow:visible;"/>
	</clipPath>
</g>
<g>
	<defs>
		<rect id="SVGID_87_" x="21.1" y="5.5" width="693.4" height="261.4"/>
	</defs>
	<clipPath id="SVGID_88_">
		<use xlink:href="#SVGID_87_"  style="overflow:visible;"/>
	</clipPath>
</g>
<g>
	<defs>
		<rect id="SVGID_89_" y="0" width="720" height="288"/>
	</defs>
	<clipPath id="SVGID_90_">
		<use xlink:href="#SVGID_89_"  style="overflow:visible;"/>
	</clipPath>
</g>
<g>
	<defs>
		<rect id="SVGID_91_" x="21.1" y="5.5" width="693.4" height="261.4"/>
	</defs>
	<clipPath id="SVGID_92_">
		<use xlink:href="#SVGID_91_"  style="overflow:visible;"/>
	</clipPath>
</g>
<g>
	<defs>
		<rect id="SVGID_93_" y="0" width="720" height="288"/>
	</defs>
	<clipPath id="SVGID_94_">
		<use xlink:href="#SVGID_93_"  style="overflow:visible;"/>
	</clipPath>
</g>
<g>
	<defs>
		<rect id="SVGID_95_" x="21.1" y="5.5" width="693.4" height="261.4"/>
	</defs>
	<clipPath id="SVGID_96_">
		<use xlink:href="#SVGID_95_"  style="overflow:visible;"/>
	</clipPath>
</g>
<g>
	<defs>
		<rect id="SVGID_97_" y="0" width="720" height="288"/>
	</defs>
	<clipPath id="SVGID_98_">
		<use xlink:href="#SVGID_97_"  style="overflow:visible;"/>
	</clipPath>
</g>
<g>
	<defs>
		<rect id="SVGID_99_" x="21.1" y="5.5" width="693.4" height="261.4"/>
	</defs>
	<clipPath id="SVGID_100_">
		<use xlink:href="#SVGID_99_"  style="overflow:visible;"/>
	</clipPath>
</g>
<g>
	<defs>
		<rect id="SVGID_101_" y="0" width="720" height="288"/>
	</defs>
	<clipPath id="SVGID_102_">
		<use xlink:href="#SVGID_101_"  style="overflow:visible;"/>
	</clipPath>
	<g class="st12">
		<rect x="43.8" y="194.4" class="st0" width="12.7" height="10.4"/>
		<text transform="matrix(1 0 0 1 43.7715 201.9299)" class="st8 st9 st10">0%</text>
		<rect x="43.8" y="165" class="st0" width="12.7" height="10.4"/>
		<text transform="matrix(1 0 0 1 43.7715 172.5402)" class="st8 st9 st10">1%</text>
		<rect x="43.8" y="135.6" class="st0" width="12.7" height="10.4"/>
		<text transform="matrix(1 0 0 1 43.7715 143.1398)" class="st8 st9 st10">2%</text>
		<rect x="43.8" y="106.2" class="st0" width="12.7" height="10.4"/>
		<text transform="matrix(1 0 0 1 43.7715 113.7502)" class="st8 st9 st10">3%</text>
	</g>
</g>
<g>
	<defs>
		<rect id="SVGID_103_" x="21.1" y="5.5" width="693.4" height="261.4"/>
	</defs>
	<clipPath id="SVGID_104_">
		<use xlink:href="#SVGID_103_"  style="overflow:visible;"/>
	</clipPath>
</g>
<g>
	<defs>
		<rect id="SVGID_105_" y="0" width="720" height="288"/>
	</defs>
	<clipPath id="SVGID_106_">
		<use xlink:href="#SVGID_105_"  style="overflow:visible;"/>
	</clipPath>
	<g class="st13">
		<rect x="603.7" y="194.4" class="st0" width="12.7" height="10.4"/>
		<text transform="matrix(1 0 0 1 603.7197 201.9299)" class="st8 st9 st10">0%</text>
		<rect x="603.7" y="165" class="st0" width="12.7" height="10.4"/>
		<text transform="matrix(1 0 0 1 603.7197 172.5402)" class="st8 st9 st10">1%</text>
		<rect x="603.7" y="135.6" class="st0" width="12.7" height="10.4"/>
		<text transform="matrix(1 0 0 1 603.7197 143.1398)" class="st8 st9 st10">2%</text>
		<rect x="603.7" y="106.2" class="st0" width="12.7" height="10.4"/>
		<text transform="matrix(1 0 0 1 603.7197 113.7502)" class="st8 st9 st10">3%</text>
	</g>
</g>
<g>
	<defs>
		<rect id="SVGID_107_" x="21.1" y="5.5" width="693.4" height="261.4"/>
	</defs>
	<clipPath id="SVGID_108_">
		<use xlink:href="#SVGID_107_"  style="overflow:visible;"/>
	</clipPath>
</g>
<g>
	<defs>
		<rect id="SVGID_109_" y="0" width="720" height="288"/>
	</defs>
	<clipPath id="SVGID_110_">
		<use xlink:href="#SVGID_109_"  style="overflow:visible;"/>
	</clipPath>
	<g class="st14">
		
			<rect x="36.2" y="218.4" transform="matrix(0.7071 -0.7071 0.7071 0.7071 -140.4295 108.2151)" class="st0" width="48.4" height="10.4"/>
		<text transform="matrix(0.7071 -0.7071 0.7071 0.7071 44.9582 242.4124)" class="st8 st9 st10">Megamonas</text>
		<text transform="matrix(0.7071 -0.7071 0.7071 0.7071 70.6344 238.9455)" class="st8 st9 st10">Butyrivibrio</text>
		<text transform="matrix(0.7071 -0.7071 0.7071 0.7071 76.5734 255.2068)" class="st8 st9 st10">Anaerobutyricum</text>
		
			<rect x="89.5" y="224" transform="matrix(0.7071 -0.7071 0.7071 0.7071 -126.4517 153.0296)" class="st0" width="64.1" height="10.4"/>
		<text transform="matrix(0.7071 -0.7071 0.7071 0.7071 100.5123 253.4782)" class="st8 st9 st10">Catenibacterium</text>
		
			<rect x="145.9" y="209.8" transform="matrix(0.7071 -0.7071 0.7071 0.7071 -105.771 174.5981)" class="st0" width="24" height="10.4"/>
		<text transform="matrix(0.7071 -0.7071 0.7071 0.7071 151.0722 225.1176)" class="st8 st9 st10">Dorea</text>
		<text transform="matrix(0.7071 -0.7071 0.7071 0.7071 156.328 242.072)" class="st8 st9 st10">Phocaeicola</text>
		
			<rect x="171.1" y="217.7" transform="matrix(0.7072 -0.707 0.707 0.7072 -100.7186 202.6897)" class="st0" width="46.5" height="10.4"/>
		<text transform="matrix(0.7071 -0.7071 0.7071 0.7071 179.5698 241.0296)" class="st8 st9 st10">Bacteroides</text>
		<text transform="matrix(0.7071 -0.7071 0.7071 0.7071 197.9792 244.8308)" class="st8 st9 st10">Enterocloster</text>
		<text transform="matrix(0.7071 -0.7071 0.7071 0.7071 234.3593 230.6506)" class="st8 st9 st10">Simiaoa</text>
		
			<rect x="231.9" y="220.2" transform="matrix(0.7071 -0.7071 0.7071 0.7071 -83.6297 248.8085)" class="st0" width="53.3" height="10.4"/>
		<text transform="matrix(0.7071 -0.7071 0.7071 0.7071 241.3502 245.8692)" class="st8 st9 st10">Enterococcus</text>
		
			<rect x="268.3" y="214.3" transform="matrix(0.7072 -0.7071 0.7071 0.7072 -71.2532 266.9321)" class="st0" width="36.7" height="10.4"/>
		<text transform="matrix(0.7071 -0.7071 0.7071 0.7071 275.3013 234.1174)" class="st8 st9 st10">Segatella</text>
		<text transform="matrix(0.7071 -0.7071 0.7071 0.7071 295.0971 236.5329)" class="st8 st9 st10">Roseburia</text>
		<text transform="matrix(0.7071 -0.7071 0.7071 0.7071 308.6437 245.1863)" class="st8 st9 st10">Agathobacter</text>
		<text transform="matrix(0.7071 -0.7071 0.7071 0.7071 331.5495 244.4905)" class="st8 st9 st10">Anaerostipes</text>
		<text transform="matrix(0.7071 -0.7071 0.7071 0.7071 374.623 223.6169)" class="st8 st9 st10">Wujia</text>
		
			<rect x="387.7" y="210.8" transform="matrix(0.7071 -0.7071 0.7071 0.7071 -35.2765 346.8755)" class="st0" width="26.9" height="10.4"/>
		<text transform="matrix(0.7071 -0.7071 0.7071 0.7071 393.2542 227.1969)" class="st8 st9 st10">Blautia</text>
		
			<rect x="384.4" y="221.4" transform="matrix(0.7071 -0.7071 0.7071 0.7071 -39.3226 358.2054)" class="st0" width="56.7" height="10.4"/>
		<text transform="matrix(0.7071 -0.7071 0.7071 0.7071 394.3556 248.2947)" class="st8 st9 st10">Paraprevotella</text>
		
			<rect x="400.3" y="224" transform="matrix(0.7071 -0.7071 0.7071 0.7071 -35.4132 372.8334)" class="st0" width="64.1" height="10.4"/>
		<text transform="matrix(0.7071 -0.7071 0.7071 0.7071 411.3765 253.4841)" class="st8 st9 st10">Parabacteroides</text>
		<text transform="matrix(0.7071 -0.7071 0.7071 0.7071 438.0819 248.9783)" class="st8 st9 st10">Ruminococcus</text>
		
			<rect x="451.8" y="221" transform="matrix(0.7072 -0.707 0.707 0.7072 -19.4713 405.4357)" class="st0" width="55.8" height="10.4"/>
		<text transform="matrix(0.7071 -0.7071 0.7071 0.7071 461.6702 247.5987)" class="st8 st9 st10">Streptococcus</text>
		<text transform="matrix(0.7071 -0.7071 0.7071 0.7071 475.9198 255.55)" class="st8 st9 st10">Faecalibacterium</text>
		
			<rect x="502.9" y="218.3" transform="matrix(0.7071 -0.7071 0.7071 0.7071 -3.6979 437.9943)" class="st0" width="47.9" height="10.4"/>
		<text transform="matrix(0.7071 -0.7071 0.7071 0.7071 511.6075 242.0723)" class="st8 st9 st10">Lachnospira</text>
		<text transform="matrix(0.7071 -0.7071 0.7071 0.7071 515.8303 260.05)" class="st8 st9 st10">Mediterraneibacter</text>
		
			<rect x="565.7" y="210.6" transform="matrix(0.7073 -0.707 0.707 0.7073 16.8818 472.4629)" class="st0" width="26.4" height="10.4"/>
		<text transform="matrix(0.7071 -0.7071 0.7071 0.7071 571.2448 226.8433)" class="st8 st9 st10">Others</text>
	</g>
</g>
<g>
	<defs>
		<rect id="SVGID_111_" x="21.1" y="5.5" width="693.4" height="261.4"/>
	</defs>
	<clipPath id="SVGID_112_">
		<use xlink:href="#SVGID_111_"  style="overflow:visible;"/>
	</clipPath>
</g>
<g>
	<defs>
		<rect id="SVGID_113_" y="0" width="720" height="288"/>
	</defs>
	<clipPath id="SVGID_114_">
		<use xlink:href="#SVGID_113_"  style="overflow:visible;"/>
	</clipPath>
</g>
<g>
	<defs>
		<rect id="SVGID_115_" x="21.1" y="5.5" width="693.4" height="261.4"/>
	</defs>
	<clipPath id="SVGID_116_">
		<use xlink:href="#SVGID_115_"  style="overflow:visible;"/>
	</clipPath>
</g>
<g>
	<defs>
		<rect id="SVGID_117_" y="0" width="720" height="288"/>
	</defs>
	<clipPath id="SVGID_118_">
		<use xlink:href="#SVGID_117_"  style="overflow:visible;"/>
	</clipPath>
</g>
<g>
	<defs>
		<rect id="SVGID_119_" x="21.1" y="5.5" width="693.4" height="261.4"/>
	</defs>
	<clipPath id="SVGID_120_">
		<use xlink:href="#SVGID_119_"  style="overflow:visible;"/>
	</clipPath>
</g>
<g>
	<defs>
		<rect id="SVGID_121_" y="0" width="720" height="288"/>
	</defs>
	<clipPath id="SVGID_122_">
		<use xlink:href="#SVGID_121_"  style="overflow:visible;"/>
	</clipPath>
</g>
<g>
	<defs>
		<rect id="SVGID_123_" x="21.1" y="5.5" width="693.4" height="261.4"/>
	</defs>
	<clipPath id="SVGID_124_">
		<use xlink:href="#SVGID_123_"  style="overflow:visible;"/>
	</clipPath>
</g>
<g>
	<defs>
		<rect id="SVGID_125_" y="0" width="720" height="288"/>
	</defs>
	<clipPath id="SVGID_126_">
		<use xlink:href="#SVGID_125_"  style="overflow:visible;"/>
	</clipPath>
</g>
<g>
	<defs>
		<rect id="SVGID_127_" x="21.1" y="5.5" width="693.4" height="261.4"/>
	</defs>
	<clipPath id="SVGID_128_">
		<use xlink:href="#SVGID_127_"  style="overflow:visible;"/>
	</clipPath>
</g>
<g>
	<defs>
		<rect id="SVGID_129_" y="0" width="720" height="288"/>
	</defs>
	<clipPath id="SVGID_130_">
		<use xlink:href="#SVGID_129_"  style="overflow:visible;"/>
	</clipPath>
</g>
<g>
	<defs>
		<rect id="SVGID_131_" x="21.1" y="5.5" width="693.4" height="261.4"/>
	</defs>
	<clipPath id="SVGID_132_">
		<use xlink:href="#SVGID_131_"  style="overflow:visible;"/>
	</clipPath>
</g>
<g>
	<defs>
		<rect id="SVGID_133_" y="0" width="720" height="288"/>
	</defs>
	<clipPath id="SVGID_134_">
		<use xlink:href="#SVGID_133_"  style="overflow:visible;"/>
	</clipPath>
</g>
<g>
	<defs>
		<rect id="SVGID_135_" x="21.1" y="5.5" width="693.4" height="261.4"/>
	</defs>
	<clipPath id="SVGID_136_">
		<use xlink:href="#SVGID_135_"  style="overflow:visible;"/>
	</clipPath>
</g>
<g>
	<defs>
		<rect id="SVGID_137_" y="0" width="720" height="288"/>
	</defs>
	<clipPath id="SVGID_138_">
		<use xlink:href="#SVGID_137_"  style="overflow:visible;"/>
	</clipPath>
</g>
<g>
	<defs>
		<rect id="SVGID_139_" x="21.1" y="5.5" width="693.4" height="261.4"/>
	</defs>
	<clipPath id="SVGID_140_">
		<use xlink:href="#SVGID_139_"  style="overflow:visible;"/>
	</clipPath>
</g>
<g>
	<defs>
		<rect id="SVGID_141_" y="0" width="720" height="288"/>
	</defs>
	<clipPath id="SVGID_142_">
		<use xlink:href="#SVGID_141_"  style="overflow:visible;"/>
	</clipPath>
</g>
<g>
	<defs>
		<rect id="SVGID_143_" x="644.5" y="74.3" width="64.5" height="61.2"/>
	</defs>
	<clipPath id="SVGID_144_">
		<use xlink:href="#SVGID_143_"  style="overflow:visible;"/>
	</clipPath>
</g>
<g>
	<defs>
		<rect id="SVGID_145_" y="0" width="720" height="288"/>
	</defs>
	<clipPath id="SVGID_146_">
		<use xlink:href="#SVGID_145_"  style="overflow:visible;"/>
	</clipPath>
	<g class="st15">
		<rect x="650" y="79.4" class="st0" width="22.4" height="13"/>
		<text transform="matrix(1 0 0 1 650.0098 88.7902)" class="st16"><tspan x="0" y="0" class="st9 st17 st18">Va</tspan><tspan x="18.8" y="0" class="st9 st17">r</tspan></text>
	</g>
</g>
<g>
	<defs>
		<rect id="SVGID_147_" x="644.5" y="74.3" width="64.5" height="61.2"/>
	</defs>
	<clipPath id="SVGID_148_">
		<use xlink:href="#SVGID_147_"  style="overflow:visible;"/>
	</clipPath>
</g>
<g>
	<defs>
		<rect id="SVGID_149_" y="0" width="720" height="288"/>
	</defs>
	<clipPath id="SVGID_150_">
		<use xlink:href="#SVGID_149_"  style="overflow:visible;"/>
	</clipPath>
</g>
<g>
	<defs>
		<rect id="SVGID_151_" x="644.5" y="74.3" width="64.5" height="61.2"/>
	</defs>
	<clipPath id="SVGID_152_">
		<use xlink:href="#SVGID_151_"  style="overflow:visible;"/>
	</clipPath>
</g>
<g>
	<defs>
		<rect id="SVGID_153_" y="0" width="720" height="288"/>
	</defs>
	<clipPath id="SVGID_154_">
		<use xlink:href="#SVGID_153_"  style="overflow:visible;"/>
	</clipPath>
	<g class="st19">
		<rect x="650.7" y="96.1" class="st20" width="15.9" height="15.9"/>
	</g>
</g>
<g>
	<defs>
		<rect id="SVGID_155_" x="644.5" y="74.3" width="64.5" height="61.2"/>
	</defs>
	<clipPath id="SVGID_156_">
		<use xlink:href="#SVGID_155_"  style="overflow:visible;"/>
	</clipPath>
</g>
<g>
	<defs>
		<rect id="SVGID_157_" y="0" width="720" height="288"/>
	</defs>
	<clipPath id="SVGID_158_">
		<use xlink:href="#SVGID_157_"  style="overflow:visible;"/>
	</clipPath>
</g>
<g>
	<defs>
		<rect id="SVGID_159_" x="644.5" y="74.3" width="64.5" height="61.2"/>
	</defs>
	<clipPath id="SVGID_160_">
		<use xlink:href="#SVGID_159_"  style="overflow:visible;"/>
	</clipPath>
</g>
<g>
	<defs>
		<rect id="SVGID_161_" y="0" width="720" height="288"/>
	</defs>
	<clipPath id="SVGID_162_">
		<use xlink:href="#SVGID_161_"  style="overflow:visible;"/>
	</clipPath>
	<g class="st21">
		<rect x="650.7" y="113.4" class="st22" width="15.9" height="15.9"/>
	</g>
</g>
<g>
	<defs>
		<rect id="SVGID_163_" x="644.5" y="74.3" width="64.5" height="61.2"/>
	</defs>
	<clipPath id="SVGID_164_">
		<use xlink:href="#SVGID_163_"  style="overflow:visible;"/>
	</clipPath>
</g>
<g>
	<defs>
		<rect id="SVGID_165_" y="0" width="720" height="288"/>
	</defs>
	<clipPath id="SVGID_166_">
		<use xlink:href="#SVGID_165_"  style="overflow:visible;"/>
	</clipPath>
	<g class="st23">
		<rect x="672.8" y="99.7" class="st0" width="18.6" height="10.4"/>
		<text transform="matrix(1 0 0 1 672.7695 107.2199)" class="st16"><tspan x="0" y="0" class="st9 st10 st24">N</tspan><tspan x="11.7" y="0" class="st9 st10">O</tspan></text>
	</g>
</g>
<g>
	<defs>
		<rect id="SVGID_167_" x="644.5" y="74.3" width="64.5" height="61.2"/>
	</defs>
	<clipPath id="SVGID_168_">
		<use xlink:href="#SVGID_167_"  style="overflow:visible;"/>
	</clipPath>
</g>
<g>
	<defs>
		<rect id="SVGID_169_" y="0" width="720" height="288"/>
	</defs>
	<clipPath id="SVGID_170_">
		<use xlink:href="#SVGID_169_"  style="overflow:visible;"/>
	</clipPath>
	<g class="st25">
		<text transform="matrix(1 0 0 1 672.77 124.5)" class="st9 st10">HTBGC</text>
	</g>
</g>
<g>
	<defs>
		<rect id="SVGID_171_" x="644.5" y="74.3" width="64.5" height="61.2"/>
	</defs>
	<clipPath id="SVGID_172_">
		<use xlink:href="#SVGID_171_"  style="overflow:visible;"/>
	</clipPath>
</g>
<g>
	<defs>
		<rect id="SVGID_173_" y="0" width="720" height="288"/>
	</defs>
	<clipPath id="SVGID_174_">
		<use xlink:href="#SVGID_173_"  style="overflow:visible;"/>
	</clipPath>
</g>
<g>
	<defs>
		<rect id="SVGID_175_" x="21.1" y="5.5" width="693.4" height="261.4"/>
	</defs>
	<clipPath id="SVGID_176_">
		<use xlink:href="#SVGID_175_"  style="overflow:visible;"/>
	</clipPath>
</g>
<g>
	<defs>
		<rect id="SVGID_177_" y="0" width="720" height="288"/>
	</defs>
	<clipPath id="SVGID_178_">
		<use xlink:href="#SVGID_177_"  style="overflow:visible;"/>
	</clipPath>
	<g class="st26">
		<rect x="356.6" y="270.8" class="st0" width="22.4" height="13"/>
		<text transform="matrix(1 0 0 1 356.6304 280.2004)" class="st16"><tspan x="0" y="0" class="st9 st17 st18">Va</tspan><tspan x="18.8" y="0" class="st9 st17">r</tspan></text>
		<rect x="3.9" y="124.9" class="st0" width="13" height="22.6"/>
		<text transform="matrix(6.123234e-17 -1 1 6.123234e-17 13.3594 147.4689)" class="st9 st17">Freq</text>
	</g>
</g>
</svg>
